<svg id="Artwork" xmlns="http://www.w3.org/2000/svg" viewBox="0 0 245.93 217.63"><defs><style>.cls-1,.cls-2{fill:#fff;}.cls-2{fill-rule:evenodd;}</style></defs><title>cengage-webassign-stacked-digital-white</title><path class="cls-1" d="M20.49,170.38h4l5,15.64c.52,1.6,1.12,3.52,1.6,5.4h.12c.56-2,1.08-3.6,1.72-5.36l3.8-11.16-1.56-4.52h3.72L44.13,186c.52,1.6,1.24,3.56,1.72,5.44h.08c.48-2,1-3.6,1.52-5.36l4.84-15.68H56L47.25,196.9H44.33l-4.12-12c-.68-2-1.24-3.52-1.72-5.28h-.12c-.48,1.76-1,3.2-1.72,5.28l-4.2,12H29.53Z"/><path class="cls-1" d="M59.89,170.38H73.21l-1,2.92H63.45v8.48h8.6v3h-8.6v9.08h9.92v2.92H59.89Z"/><path class="cls-1" d="M79.05,170.38h6.64c5.6,0,8.12,3.12,8.12,6.68a6,6,0,0,1-3.4,5.64v.08a6.38,6.38,0,0,1,5.08,6.4c0,4.32-3.12,7.56-9,7.56h-7.4Zm6.24,11.44c3.24,0,5-1.64,5-4.28,0-2.44-1.44-4.2-4.88-4.2H82.61v8.48Zm1,12c3.44,0,5.6-1.32,5.6-4.56,0-2.72-2-4.44-5.2-4.44h-4v9Z"/><path class="cls-1" d="M108.09,170.3h2.56l10.24,26.44h-3.8l-2.6-6.92h-10.2l-2.56,6.92H98.05Zm5.28,16.6L110.93,180c-.76-2.24-1.16-3.44-1.48-4.4h-.08c-.28,1-.72,2.2-1.52,4.44l-2.48,6.84Z"/><path class="cls-1" d="M125,192.3a10.36,10.36,0,0,0,5.76,1.8c2.64,0,5-1,5-3.88,0-6-11.52-5.24-11.52-13.16,0-3.8,2.92-6.92,8-6.92a14.05,14.05,0,0,1,6,1.28v3.24a12.53,12.53,0,0,0-5.84-1.48c-2.2,0-4.4.92-4.4,3.52,0,5.6,11.56,5,11.56,13.24,0,4.48-3.64,7.2-8.76,7.2a13.1,13.1,0,0,1-7.28-2.08Z"/><path class="cls-1" d="M145.17,192.3a10.36,10.36,0,0,0,5.76,1.8c2.64,0,5-1,5-3.88,0-6-11.52-5.24-11.52-13.16,0-3.8,2.92-6.92,8-6.92a14.05,14.05,0,0,1,6,1.28v3.24a12.53,12.53,0,0,0-5.84-1.48c-2.2,0-4.4.92-4.4,3.52,0,5.6,11.56,5,11.56,13.24,0,4.48-3.64,7.2-8.76,7.2a13.1,13.1,0,0,1-7.28-2.08Z"/><path class="cls-1" d="M165.21,170.38h3.56v26.36h-3.56Z"/><path class="cls-1" d="M202.85,170.38h3.44l11.92,15.52c1.56,2,2.68,3.6,3.56,4.92h.08c-.08-1.44-.08-2.72-.08-4.6V170.38h3.52v26.36h-3.08l-12.36-16.12c-1.48-1.92-2.56-3.44-3.48-4.76h-.08c.08,1.24.12,2.52.12,4.4v16.48h-3.56Z"/><path class="cls-1" d="M59.77,124.77a16.25,16.25,0,0,1-7.67,1.91c-8.11,0-12.82-5.55-12.82-13.26s5.35-13.7,13.34-13.7a14.65,14.65,0,0,1,6.63,1.4v3.31a13.37,13.37,0,0,0-6.55-1.67c-6.07,0-9.67,4.63-9.67,10.5,0,6.11,3.64,10.39,9.43,10.39a12.81,12.81,0,0,0,6.31-1.72Z"/><path class="cls-1" d="M65.79,100H79.1l-1,2.92H69.35v8.46h8.59v3H69.35v9.07h9.91v2.91H65.79Z"/><path class="cls-1" d="M85.12,100h3.44l11.9,15.5c1.56,2,2.68,3.59,3.56,4.91h.08c-.08-1.44-.08-2.71-.08-4.59V100h3.55v26.32h-3.11L92.12,110.19c-1.48-1.92-2.56-3.44-3.48-4.76h-.08c.08,1.24.12,2.52.12,4.4v16.45H85.12Z"/><path class="cls-1" d="M125,115.58l-1-2.92h11v12a20.77,20.77,0,0,1-8.91,2c-8.11,0-13.26-5.47-13.26-13.14,0-8.07,5.55-13.82,13.9-13.82a19.87,19.87,0,0,1,7.31,1.4v3.31a15.67,15.67,0,0,0-7.11-1.67c-6.63,0-10.35,4.31-10.35,10.46,0,6.39,3.8,10.43,9.87,10.43a12.18,12.18,0,0,0,5-1v-7.11Z"/><path class="cls-1" d="M149,99.88h2.52l10.23,26.4h-3.8l-2.59-6.91H145.15l-2.52,6.91h-3.71Zm5.28,16.58-2.48-6.87c-.76-2.24-1.16-3.44-1.48-4.4h-.08c-.28,1-.72,2.2-1.52,4.44l-2.47,6.83Z"/><path class="cls-1" d="M175.78,115.58l-1-2.92h10.94v12a20.77,20.77,0,0,1-8.91,2c-8.11,0-13.26-5.47-13.26-13.14,0-8.07,5.55-13.82,13.9-13.82a19.87,19.87,0,0,1,7.31,1.4v3.31a15.67,15.67,0,0,0-7.11-1.67c-6.63,0-10.34,4.31-10.34,10.46,0,6.39,3.79,10.43,9.86,10.43a12.18,12.18,0,0,0,5-1v-7.11Z"/><path class="cls-1" d="M186.53,185.94l-1-2.92h10.94v12a20.57,20.57,0,0,1-8.9,2c-8.11,0-13.27-5.47-13.27-13.14,0-8.07,5.56-13.82,13.91-13.82a19.81,19.81,0,0,1,7.3,1.4v3.31a15.64,15.64,0,0,0-7.11-1.68c-6.63,0-10.34,4.32-10.34,10.47,0,6.39,3.79,10.43,9.87,10.43a12.25,12.25,0,0,0,5-1v-7.11Z"/><path class="cls-1" d="M192.08,100h13.3l-1,2.92h-8.71v8.46h8.59v3h-8.59v9.07h9.91v2.91H192.08Z"/><path class="cls-2" d="M107.53,31.72,117.11,35l-1.53,7.68-13.29-4.5,3.27-5.66A1.48,1.48,0,0,1,107.53,31.72Z"/><path class="cls-2" d="M94,56l8.37-7.34,6.48,5.68L97.23,64.52,93.64,58.3A1.64,1.64,0,0,1,94,56Z"/><path class="cls-2" d="M109,81.09l-2.39-12,9-3,3.32,16.64H111A1.8,1.8,0,0,1,109,81.09Z"/><path class="cls-2" d="M139.8,80.59,127,76.27l2-10.23,17.68,6-4.34,7.53A2,2,0,0,1,139.8,80.59Z"/><path class="cls-2" d="M155.59,52.14l-11.13,9.77-8.63-7.57L151.27,40.8l4.78,8.28A2.17,2.17,0,0,1,155.59,52.14Z"/><path class="cls-2" d="M137.85,22.61l3.19,16-12,4-4.41-22.16h10.51A2.41,2.41,0,0,1,137.85,22.61Z"/><rect class="cls-1" x="39.27" y="147.53" width="166.26" height="2"/></svg>